:SAMPLES-PER-SECOND 30
:FULLY-SPECIFIED
:DEGREES
77
root  -18.4447 19.7204 3.44705 4.89995 84.3979 -35.9799
RightUpLeg  -42.9199 9.88752 10.1792
RightLeg  108.948 11.843 -1.14854
RightFoot  -36.5743 0.0502414 0.184058
RightToes  1.16415e-010 -3.18055e-015 8.94531e-016
Spine  55.9178 4.92842 -4.40255
Spine1  -7.70607 1.74001 7.30037
HEad  -45.2753 6.98797 2.64088
LeftShoulder1  0 -2.69403e-036 -1.28585e-037
LeftArm  -2.10088 -68.6809 -68.352
LeftForeArm  4.34972 -5.53362 7.87381
LeftHand  -0.453036 3.18338 22.4944
RightShoulder  -2.48481e-017 0 -8.08114e-019
RightArm  20.7516 13.0524 97.0572
RightForeArm  16.8488 17.4971 -13.5127
RightHand  9.41442 -21.8232 -47.1349
LeftUpLeg  -52.0188 2.08849 12.9585
LeftLeg  120.424 -3.81663 -16.9935
LeftFoot  2.69687 0.546404 -3.95669
LeftToes  4.502e-010 -1.85808e-011 5.37561e-011
78
root  -17.5133 19.6721 2.96666 -2.05254 81.5717 -42.9083
RightUpLeg  -39.8113 11.9261 9.59517
RightLeg  106.451 11.3011 0.148007
RightFoot  -37.1906 0.245659 1.09585
RightToes  1.16415e-010 -3.18055e-015 8.94531e-016
Spine  55.9511 5.75313 -1.90211
Spine1  -7.09238 4.29713 4.31792
HEad  -45.8511 4.72577 2.95263
LeftShoulder1  0 -2.69403e-036 -1.28585e-037
LeftArm  4.52604 -68.7469 -76.4239
LeftForeArm  4.13977 -7.31216 7.25
LeftHand  -0.715756 2.6628 24.2261
RightShoulder  -2.48481e-017 0 -8.08114e-019
RightArm  28.9859 8.34682 92.3275
RightForeArm  4.9538 21.1044 -21.9735
RightHand  8.34378 -20.8917 -43.9437
LeftUpLeg  -54.717 4.6101 12.4429
LeftLeg  122.544 -3.1743 -16.7673
LeftFoot  4.36196 0.214814 -1.25305
LeftToes  4.502e-010 -1.85808e-011 5.37561e-011
79
root  -16.5609 19.606 2.53438 -4.90672 79.2741 -45.8449
RightUpLeg  -36.767 13.4488 8.90567
RightLeg  103.625 10.95 1.23159
RightFoot  -37.9002 0.42183 1.86404
RightToes  1.16415e-010 -3.18055e-015 8.94531e-016
Spine  56.1496 6.32462 0.456111
Spine1  -6.93572 6.57847 0.854459
HEad  -46.6507 2.33158 3.51449
LeftShoulder1  0 -2.69403e-036 -1.28585e-037
LeftArm  12.5939 -68.4143 -86.7646
LeftForeArm  5.14174 -8.18126 6.922
LeftHand  -0.969942 2.26972 26.3688
RightShoulder  -2.48481e-017 0 -8.08114e-019
RightArm  23.4835 2.72902 86.929
RightForeArm  4.48224 27.4518 -28.143
RightHand  7.33487 -19.9622 -40.6393
LeftUpLeg  -58.2383 6.43546 11.8192
LeftLeg  124.23 -2.97907 -16.134
LeftFoot  4.40268 0.109114 -0.603244
LeftToes  4.502e-010 -1.85808e-011 5.37561e-011
80
root  -15.6304 19.476 2.11965 -6.58232 77.2009 -47.55
RightUpLeg  -33.8324 14.7069 8.14026
RightLeg  100.925 10.7299 2.2442
RightFoot  -38.4404 0.587156 2.55901
RightToes  1.16415e-010 -3.18055e-015 8.94531e-016
Spine  56.222 6.4741 2.42423
Spine1  -6.72855 8.23855 -2.73365
HEad  -47.505 0.907645 4.40827
LeftShoulder1  0 -2.69403e-036 -1.28585e-037
LeftArm  17.2507 -67.0899 -94.387
LeftForeArm  7.6685 -9.77733 7.21391
LeftHand  -1.19704 1.96381 28.3835
RightShoulder  -2.48481e-017 0 -8.08114e-019
RightArm  15.7691 -1.06687 82.859
RightForeArm  4.94521 34.8646 -33.7791
RightHand  6.87544 -19.5496 -38.8939
LeftUpLeg  -61.2843 7.6764 11.2031
LeftLeg  125.329 -3.05039 -15.4717
LeftFoot  5.91317 0.0389035 -0.140026
LeftToes  4.502e-010 -1.85808e-011 5.37561e-011
81
root  -14.7631 19.2885 1.71576 -8.04472 75.2046 -48.7467
RightUpLeg  -30.9425 15.8114 7.46744
RightLeg  98.6757 10.5959 3.24497
RightFoot  -38.6674 0.671356 2.90712
RightToes  1.16415e-010 -3.18055e-015 8.94531e-016
Spine  56.2683 6.33576 3.81148
Spine1  -6.60399 9.24742 -5.83971
HEad  -47.5956 0.445246 5.63451
LeftShoulder1  0 -2.69403e-036 -1.28585e-037
LeftArm  18.4635 -65.072 -97.0992
LeftForeArm  9.66645 -12.5271 7.48784
LeftHand  -1.33846 1.74916 29.3379
RightShoulder  -2.48481e-017 0 -8.08114e-019
RightArm  10.9477 -0.521834 79.9907
RightForeArm  3.26961 40.4622 -39.2122
RightHand  6.70226 -19.3869 -38.2166
LeftUpLeg  -62.9531 8.50931 10.7997
LeftLeg  125.987 -2.85088 -15.4115
LeftFoot  10.3749 -0.0335965 0.292318
LeftToes  4.502e-010 -1.85808e-011 5.37561e-011
82
root  -13.9622 19.082 1.33089 -9.72711 73.5507 -49.9878
RightUpLeg  -28.2002 16.5591 6.99282
RightLeg  96.8281 10.533 4.16941
RightFoot  -38.7038 0.636617 2.74919
RightToes  1.16415e-010 -3.18055e-015 8.94531e-016
Spine  56.4032 6.1183 4.85682
Spine1  -7.05495 9.84612 -8.02401
HEad  -46.5147 -0.228046 6.91993
LeftShoulder1  0 -2.69403e-036 -1.28585e-037
LeftArm  20.1905 -62.2643 -97.6587
LeftForeArm  8.89912 -15.5024 8.0253
LeftHand  -1.40601 1.67792 29.9765
RightShoulder  -2.48481e-017 0 -8.08114e-019
RightArm  7.89494 4.3879 76.8472
RightForeArm  1.66087 43.5005 -42.7072
RightHand  6.34344 -19.002 -36.9095
LeftUpLeg  -63.5346 8.79697 10.6745
LeftLeg  126.376 -2.29157 -15.944
LeftFoot  15.8313 0.100411 -0.178441
LeftToes  4.502e-010 -1.85808e-011 5.37561e-011
